<svg width="1003" height="555" viewBox="0 0 1003 555" fill="none" xmlns="http://www.w3.org/2000/svg">
<g id="bg_elements">
<path id="curve3" d="M847 125.882L861.79 111.419C863.733 109.518 866.838 109.518 868.782 111.419L880.076 122.464C882.019 124.364 885.124 124.364 887.067 122.464L898.361 111.419C900.304 109.518 903.41 109.518 905.353 111.419L916.647 122.464C918.59 124.364 921.696 124.364 923.639 122.464L934.933 111.419C936.876 109.518 939.981 109.518 941.924 111.419L953.218 122.464C955.162 124.364 958.267 124.364 960.21 122.464L975 108" stroke="#2B2D42" stroke-width="2"/>
<path id="curve1" d="M451 18.9706L461.79 8.41877C463.733 6.51843 466.838 6.51843 468.782 8.41877L476.076 15.5518C478.019 17.4522 481.124 17.4522 483.067 15.5518L490.361 8.41877C492.304 6.51843 495.41 6.51843 497.353 8.41877L504.647 15.5518C506.59 17.4522 509.696 17.4522 511.639 15.5518L518.933 8.41877C520.876 6.51843 523.981 6.51843 525.924 8.41877L533.218 15.5518C535.162 17.4522 538.267 17.4522 540.21 15.5518L551 5" stroke="#2B2D42" stroke-width="2"/>
<path id="curve5" d="M811 528.971L821.79 518.419C823.733 516.518 826.838 516.518 828.782 518.419L836.076 525.552C838.019 527.452 841.124 527.452 843.067 525.552L850.361 518.419C852.304 516.518 855.41 516.518 857.353 518.419L864.647 525.552C866.59 527.452 869.696 527.452 871.639 525.552L878.933 518.419C880.876 516.518 883.981 516.518 885.924 518.419L893.218 525.552C895.162 527.452 898.267 527.452 900.21 525.552L911 515" stroke="#2B2D42" stroke-width="2"/>
<path id="curve4" d="M13 411L28.9327 395.419C30.8759 393.518 33.9812 393.518 35.9245 395.419L48.3613 407.581C50.3045 409.482 53.4098 409.482 55.353 407.581L67.7898 395.419C69.733 393.518 72.8384 393.518 74.7816 395.419L87.2184 407.581C89.1616 409.482 92.267 409.482 94.2102 407.581L106.647 395.419C108.59 393.518 111.696 393.518 113.639 395.419L126.076 407.581C128.019 409.482 131.124 409.482 133.067 407.581L149 392" stroke="#2B2D42" stroke-width="2"/>
<path id="curve2" d="M1 107.903L10.9314 96.6904C11.7273 95.7918 13.1299 95.7918 13.9257 96.6904L22.36 106.213C23.1558 107.111 24.5584 107.111 25.3543 106.213L33.7885 96.6904C34.5844 95.7918 35.987 95.7918 36.7829 96.6904L45.2171 106.213C46.013 107.111 47.4156 107.111 48.2115 106.213L56.6457 96.6904C57.4416 95.7918 58.8442 95.7918 59.64 96.6904L68.0743 106.213C68.8701 107.111 70.2727 107.111 71.0686 106.213L81 95" stroke="#2B2D42" stroke-width="2"/>
<path id="curve6" d="M847 317L854.053 308.772C854.851 307.84 856.292 307.84 857.09 308.772L862.624 315.228C863.423 316.16 864.863 316.16 865.661 315.228L871.196 308.772C871.994 307.84 873.435 307.84 874.233 308.772L879.767 315.228C880.565 316.16 882.006 316.16 882.804 315.228L888.339 308.772C889.137 307.84 890.577 307.84 891.376 308.772L896.91 315.228C897.708 316.16 899.149 316.16 899.947 315.228L907 307" stroke="#2B2D42" stroke-width="2"/>
<path id="triangle1" d="M147.732 167L162.454 192.5C163.224 193.833 162.262 195.5 160.722 195.5H131.278C129.738 195.5 128.776 193.833 129.546 192.5L144.268 167C145.038 165.667 146.962 165.667 147.732 167Z" stroke="black" stroke-width="2"/>
<path id="triangle3" d="M519.732 520L531.856 541C532.626 542.333 531.664 544 530.124 544H505.876C504.336 544 503.374 542.333 504.144 541L516.268 520C517.038 518.667 518.962 518.667 519.732 520Z" stroke="black" stroke-width="2"/>
<path id="triangle2" d="M986.268 220C987.038 218.667 988.962 218.667 989.732 220L997.526 233.5C998.296 234.833 997.334 236.5 995.794 236.5H980.206C978.666 236.5 977.704 234.833 978.474 233.5L986.268 220Z" stroke="black" stroke-width="2"/>
<circle id="circle2" cx="948" cy="411" r="19" stroke="black" stroke-width="2"/>
<circle id="circle1" cx="11.5" cy="287.5" r="10.5" stroke="black" stroke-width="2"/>
<g id="line6">
<line id="Line 9" x1="136" y1="286" x2="183" y2="286" stroke="black" stroke-width="2" stroke-linejoin="round"/>
<line id="Line 10" x1="116" y1="286" x2="129" y2="286" stroke="black" stroke-width="2" stroke-linejoin="round"/>
</g>
<g id="line3">
<line id="Line 11" y1="-1" x2="47" y2="-1" transform="matrix(-1 0 0 1 827 205)" stroke="black" stroke-width="2" stroke-linejoin="round"/>
<line id="Line 12" y1="-1" x2="13" y2="-1" transform="matrix(-1 0 0 1 847 205)" stroke="black" stroke-width="2" stroke-linejoin="round"/>
</g>
<g id="line1">
<line id="Line 1" x1="335" y1="103" x2="451" y2="103" stroke="black" stroke-width="2" stroke-linejoin="round"/>
<line id="Line 2" x1="291" y1="103" x2="319" y2="103" stroke="black" stroke-width="2" stroke-linejoin="round"/>
<line id="Line 5" x1="247" y1="103" x2="275" y2="103" stroke="black" stroke-width="2" stroke-linejoin="round"/>
</g>
<g id="line5">
<line id="Line 3" y1="-1" x2="116" y2="-1" transform="matrix(-1 0 0 1 690 443)" stroke="black" stroke-width="2" stroke-linejoin="round"/>
<line id="Line 4" y1="-1" x2="28" y2="-1" transform="matrix(-1 0 0 1 731 443)" stroke="black" stroke-width="2" stroke-linejoin="round"/>
</g>
<g id="lin4">
<line id="Line 6" y1="-1" x2="100" y2="-1" transform="matrix(-1 0 0 1 187 523)" stroke="black" stroke-width="2" stroke-linejoin="round"/>
<line id="Line 7" y1="-1" x2="28" y2="-1" transform="matrix(-1 0 0 1 295 523)" stroke="black" stroke-width="2" stroke-linejoin="round"/>
<line id="Line 8" y1="-1" x2="40" y2="-1" transform="matrix(-1 0 0 1 247 523)" stroke="black" stroke-width="2" stroke-linejoin="round"/>
</g>
<rect id="rectangle 79" x="651" y="89" width="28" height="28" rx="2" stroke="black" stroke-width="2"/>
<rect id="rectangle 81" x="170" y="1" width="22" height="22" rx="2" stroke="black" stroke-width="2"/>
<rect id="rectangle80" x="354" y="417" width="22" height="22" rx="2" stroke="black" stroke-width="2"/>
<g id="line2">
<line id="Line 3_2" y1="-1" x2="70" y2="-1" transform="matrix(-1 0 0 1 830 9)" stroke="black" stroke-width="2" stroke-linejoin="round"/>
<line id="Line 4_2" y1="-1" x2="28" y2="-1" transform="matrix(-1 0 0 1 871 9)" stroke="black" stroke-width="2" stroke-linejoin="round"/>
</g>
</g>
</svg>
