<svg width="124" height="124" viewBox="0 0 124 124" fill="none" xmlns="http://www.w3.org/2000/svg">
<rect width="124" height="124" fill="white"/>
<g clip-path="url(#clip0)">
<path d="M92.3545 108H31.6455C22.441 108 15 100.559 15 91.3541V32.9951C15 23.7906 22.441 16.3496 31.6455 16.3496H92.3545C101.559 16.3496 109 23.7906 109 32.9951V91.3541C109 100.559 101.559 108 92.3545 108Z" fill="#FF26BE"/>
<path d="M90.8655 104.082H33.1345C25.3024 104.082 18.9179 97.6973 18.9179 89.8652V34.4841C18.9179 26.6521 25.3024 20.2676 33.1345 20.2676H90.8279C98.7013 20.2676 105.044 26.6521 105.044 34.4841V89.8276C105.082 97.6973 98.6976 104.082 90.8655 104.082Z" fill="#2E001F"/>
<path d="M52.1676 59.236L63.1355 80.307C63.3311 80.6191 63.2145 80.9349 62.8987 80.9349H56.0818C55.6494 80.9349 55.4539 80.8183 55.2583 80.4273C52.7504 75.2573 50.2049 70.0873 47.5804 64.5263H47.5015C45.1515 69.7752 42.5646 75.2987 40.0604 80.4687C39.8649 80.7808 39.6694 80.9011 39.3535 80.9011H32.8976C32.5066 80.9011 32.4652 80.589 32.6645 80.3521L43.3955 59.9052L33.0179 39.2252C32.7811 38.9132 33.0179 38.6763 33.2511 38.6763H39.989C40.38 38.6763 40.5379 38.7552 40.6921 39.1087C43.1587 44.2787 45.6666 49.6066 48.0166 54.8142H48.0955C50.3666 49.6442 52.8745 44.2787 55.3035 39.1463C55.499 38.8342 55.6155 38.6387 56.0103 38.6387H62.3159C62.6279 38.6387 62.7483 38.8756 62.5527 39.1876L52.1676 59.236ZM65.0569 65.6204C65.0569 56.4949 71.1293 49.366 80.7624 49.366C81.5859 49.366 82.0145 49.366 82.8003 49.4449V39.0673C82.8003 38.8304 82.9959 38.6763 83.1914 38.6763H89.3803C89.6924 38.6763 89.7714 38.7928 89.7714 38.9884V74.9452C89.7714 76.0018 89.7714 77.3328 89.9669 78.7842C89.9669 79.0211 89.8879 79.0963 89.6548 79.2166C86.3648 80.7845 82.9169 81.4876 79.6269 81.4876C71.1255 81.5215 65.0531 76.2763 65.0569 65.6204ZM82.7966 55.5963C82.2476 55.3594 81.4655 55.2052 80.5255 55.2052C75.5887 55.2052 72.1445 59.0028 72.1445 65.3121C72.1445 72.52 75.6714 75.419 80.0969 75.419C81.0369 75.419 82.0559 75.3024 82.8003 74.9866V55.5963H82.7966Z" fill="#FFD9F2"/>
</g>
<defs>
<clipPath id="clip0">
<rect width="94" height="91.65" fill="white" transform="translate(15 16.3496)"/>
</clipPath>
</defs>
</svg>
