<svg width="125" height="124" viewBox="0 0 125 124" fill="none" xmlns="http://www.w3.org/2000/svg">
<rect width="124" height="124" transform="translate(0.586182)" fill="white"/>
<path d="M62.0318 108L25.6859 98.8032L17.5862 16H106.586L98.4781 98.7905L62.0318 108Z" fill="#264DE4"/>
<path d="M91.7298 93.5763L98.5862 23H62.5862V101L91.7298 93.5763Z" fill="#2965F1"/>
<path d="M36.5973 53.3731L37.598 63.4388H62.5862V53.3731H36.5973ZM34.5862 33L35.6012 43.0657H62.5862V33H34.5862ZM62.5862 79.5148L62.5372 79.5265L50.1013 76.4996L49.3063 68.4718H38.0969L39.6612 84.2765L62.5348 90L62.5862 89.9874V79.5148Z" fill="#EBEBEB"/>
<path d="M87.5685 53.3748L89.5862 33H61.5865V43.0665H77.3366L76.3196 53.3748H61.5865V63.4413H75.3505L74.0527 76.4969L61.5862 79.5272V90L84.5009 84.2807L84.6689 82.5799L87.2959 56.0779L87.5685 53.3748Z" fill="white"/>
</svg>
