<svg width="124" height="124" viewBox="0 0 124 124" fill="none" xmlns="http://www.w3.org/2000/svg">
<rect width="124" height="124" fill="white"/>
<path d="M13 62C13 34.9381 34.9381 13 62 13C89.0619 13 111 34.9381 111 62C111 89.0619 89.0619 111 62 111C34.9381 111 13 89.0619 13 62Z" fill="#333333"/>
<path d="M52.2001 91.3988C57.6125 91.3988 62.0001 87.0113 62.0001 81.5988V71.7988H52.2001C46.7876 71.7988 42.4001 76.1866 42.4001 81.5988C42.4001 87.0113 46.7876 91.3988 52.2001 91.3988Z" fill="#0ACF83"/>
<path d="M42.4001 62.0012C42.4001 56.5887 46.7876 52.2012 52.2001 52.2012H62.0001V71.8012H52.2001C46.7876 71.8012 42.4001 67.4134 42.4001 62.0012Z" fill="#A259FF"/>
<path d="M42.4001 42.3987C42.4001 36.9862 46.7876 32.5986 52.2001 32.5986H62.0001V52.1987H52.2001C46.7876 52.1987 42.4001 47.8109 42.4001 42.3987Z" fill="#F24E1E"/>
<path d="M62 32.5986H71.8C77.2125 32.5986 81.6 36.9862 81.6 42.3987C81.6 47.8109 77.2125 52.1987 71.8 52.1987H62V32.5986Z" fill="#FF7262"/>
<path d="M81.6 62.0012C81.6 67.4134 77.2125 71.8012 71.8 71.8012C66.3875 71.8012 62 67.4134 62 62.0012C62 56.5887 66.3875 52.2012 71.8 52.2012C77.2125 52.2012 81.6 56.5887 81.6 62.0012Z" fill="#1ABCFE"/>
</svg>
