<svg width="125" height="124" viewBox="0 0 125 124" fill="none" xmlns="http://www.w3.org/2000/svg">
<rect width="124" height="124" transform="translate(0.586182)" fill="white"/>
<path d="M106.586 17L98.6343 97.334L62.89 106.27L27.2443 97.346L19.3002 17H106.586Z" fill="#E44D26"/>
<path d="M62.9431 99.4393L91.8267 92.2183L98.622 23.5693H62.9431V99.4393Z" fill="#F16529"/>
<path d="M47.4839 43.2777H62.9419V33.4287H35.5421L35.8038 36.0727L38.4896 63.2277H62.9431V53.3687H48.483L47.4839 43.2777ZM49.9467 68.1497H38.9775L40.5078 83.6217L62.892 89.2217L62.9419 89.2097V78.9607L62.8943 78.9717L50.7252 76.0087L49.949 68.1497H49.9467Z" fill="#EBEBEB"/>
<path d="M62.9054 63.222H76.3608L75.0922 76.002L62.9043 78.968V89.22L85.3041 83.62L85.4682 81.955L88.0364 56.012L88.3026 53.366H62.9054V63.222ZM62.9054 43.253V43.277H89.2972L89.519 41.062L90.0169 36.062L90.2775 33.418H62.9054V43.248V43.253Z" fill="white"/>
</svg>
