<svg width="125" height="124" viewBox="0 0 125 124" fill="none" xmlns="http://www.w3.org/2000/svg">
<rect width="124" height="124" transform="translate(0.586182)" fill="white"/>
<path d="M16.5862 22.1333C16.5862 18.746 19.3322 16 22.7195 16H102.453C105.84 16 108.586 18.746 108.586 22.1333V101.867C108.586 105.254 105.84 108 102.453 108H22.7195C19.3322 108 16.5862 105.254 16.5862 101.867V22.1333Z" fill="#F7DF1E"/>
<path d="M40.3024 93.5536L47.4956 89.2002C48.8835 91.6608 50.1459 93.7427 53.1741 93.7427C56.0767 93.7427 57.9072 92.6074 57.9072 88.1908V58.1556H66.7406V88.3157C66.7406 97.4649 61.3775 101.63 53.5527 101.63C46.4862 101.63 42.3843 97.9698 40.302 93.5529L40.3024 93.5536ZM71.5386 92.607L78.7311 88.4427C80.6247 91.5348 83.0856 93.8062 87.439 93.8062C91.0995 93.8062 93.4333 91.9762 93.4333 89.4521C93.4333 86.4236 91.0356 85.3506 86.9972 83.5845L84.7893 82.6371C78.4161 79.9247 74.1886 76.5172 74.1886 69.324C74.1886 62.6985 79.2364 57.6504 87.1239 57.6504C92.7397 57.6504 96.778 59.6068 99.6803 64.7176L92.8021 69.1349C91.2875 66.4218 89.6476 65.3492 87.1235 65.3492C84.5363 65.3492 82.8958 66.9898 82.8958 69.1349C82.8958 71.7849 84.5363 72.8582 88.3221 74.4988L90.5303 75.445C98.0393 78.6634 102.267 81.9443 102.267 89.3262C102.267 97.2773 96.0201 101.631 87.6281 101.631C79.4255 101.631 74.1251 97.7186 71.5383 92.6074" fill="black"/>
</svg>
