<svg width="125" height="124" viewBox="0 0 125 124" fill="none" xmlns="http://www.w3.org/2000/svg">
<rect width="124" height="124" transform="translate(0.586243)" fill="white"/>
<path d="M22.6546 36.6332C14.5551 48.2738 15.5634 63.4202 21.7505 75.7901C21.8974 76.0867 22.0516 76.3783 22.2037 76.6698L22.493 77.2272L22.6737 77.5481L22.996 78.1254C23.1885 78.4639 23.3853 78.801 23.5865 79.1381L23.9236 79.6933C24.1468 80.0538 24.3752 80.41 24.6087 80.7654L24.901 81.2163C25.2234 81.6974 25.5531 82.1777 25.8939 82.6491L25.9225 82.6858L26.09 82.912C26.3845 83.3181 26.6877 83.7191 26.9947 84.1157L27.3355 84.5489C27.6094 84.8934 27.8877 85.2356 28.1712 85.5763L28.4906 85.9582C28.871 86.4062 29.2595 86.8519 29.6554 87.2889L29.6796 87.3131L29.7244 87.3631C30.1114 87.7853 30.5072 88.1981 30.9082 88.6108L31.2879 88.9934C31.5985 89.3062 31.9143 89.6139 32.233 89.9202L32.62 90.2873C33.046 90.689 33.4763 91.0827 33.9155 91.4675L33.936 91.4837L34.1615 91.6761C34.5485 92.0109 34.9421 92.3436 35.3387 92.6697L35.8263 93.0581C36.1502 93.3181 36.4777 93.5737 36.8074 93.8248L37.3318 94.2236C37.696 94.4916 38.0625 94.7553 38.4326 95.0131L38.8336 95.2973L38.9437 95.3758C39.2948 95.6174 39.6539 95.8502 40.013 96.083L40.4756 96.3915C41.0264 96.7396 41.5845 97.084 42.1493 97.4167L42.6119 97.6774C43.0269 97.9168 43.4447 98.1518 43.8677 98.3816C44.0968 98.505 44.3318 98.6218 44.5624 98.74C44.8613 98.8964 45.158 99.0551 45.462 99.2071L45.6699 99.3077L46.0378 99.4854C46.5085 99.7101 46.9829 99.9312 47.4625 100.144L47.7636 100.279C48.3129 100.519 48.8666 100.75 49.4255 100.97L49.8301 101.13C50.3471 101.329 50.8714 101.525 51.398 101.711L51.5948 101.779C52.1728 101.981 52.7559 102.168 53.3434 102.351L53.7656 102.477C54.3634 102.657 54.9546 102.872 55.5707 102.986C94.7415 110.129 106.12 79.4472 106.12 79.4472C96.5635 91.8971 79.6009 95.1812 63.5291 91.5248C62.9203 91.3874 62.3299 91.1972 61.7358 91.0217L61.2886 90.8859C60.7084 90.7081 60.1334 90.5209 59.5613 90.3241L59.3241 90.2381C58.8115 90.0582 58.3055 89.868 57.801 89.6734L57.3736 89.5052C56.8214 89.2871 56.272 89.0595 55.7293 88.8215L55.4011 88.6761C54.9347 88.4646 54.4736 88.2517 54.0138 88.0306L53.6129 87.8382C53.2523 87.6627 52.8954 87.4762 52.54 87.2926C52.302 87.167 52.0597 87.0488 51.8239 86.918C51.3892 86.6852 50.9632 86.4436 50.538 86.1969L50.104 85.9545C49.5393 85.6226 48.9819 85.2782 48.4297 84.9286L47.978 84.6275C47.5778 84.3698 47.179 84.1068 46.7861 83.8351L46.4028 83.5656C46.0238 83.2976 45.6486 83.0266 45.2762 82.7512L44.7776 82.3737C44.4361 82.113 44.0968 81.8501 43.7612 81.5791L43.3081 81.2156C42.8807 80.8638 42.4592 80.5113 42.0421 80.1486L41.9033 80.0318C41.4524 79.636 41.0103 79.2299 40.5726 78.8223L40.1973 78.4617C39.8735 78.1533 39.5547 77.8426 39.2412 77.5239L38.8666 77.1501C38.4679 76.7418 38.0764 76.3284 37.6931 75.909L37.6351 75.8473C37.2297 75.4038 36.8331 74.9507 36.4447 74.4931L36.1333 74.123C35.8439 73.7742 35.5568 73.421 35.2763 73.0641L34.9627 72.6734C34.6256 72.2357 34.2959 71.8002 33.9735 71.3559C25.0508 59.1844 21.8445 42.398 28.9761 28.6123L22.6546 36.6332ZM47.7974 26.8249C41.9392 35.254 42.258 46.5384 46.8272 55.453C47.5932 56.9475 48.4546 58.3978 49.4181 59.7777C50.2957 61.0357 51.2687 62.5324 52.4335 63.5429C52.8557 64.0077 53.2971 64.4616 53.748 64.9073L54.0946 65.2488C54.5323 65.6733 54.9766 66.0904 55.4371 66.4958L55.4914 66.5428L55.5046 66.556C56.0135 67.0025 56.5386 67.4307 57.0725 67.8537L57.4287 68.1313C57.964 68.5418 58.5097 68.9442 59.0685 69.329L59.1163 69.365C59.363 69.5354 59.6142 69.694 59.8646 69.8585L60.2193 70.0928C60.6188 70.3491 61.0234 70.5988 61.4347 70.8382L61.6073 70.938C61.962 71.1422 62.3211 71.3434 62.6817 71.5388L63.0643 71.7378C63.3132 71.8678 63.5622 72.0007 63.8155 72.127L63.9294 72.1784C64.4456 72.4325 64.9663 72.6778 65.498 72.9091L65.8446 73.0516C66.2698 73.2322 66.6994 73.4085 67.1298 73.573L67.6806 73.7749C68.072 73.9203 68.4649 74.0525 68.8607 74.1854L69.3946 74.3566C69.9579 74.5313 70.5145 74.7524 71.1013 74.8501C101.345 79.8607 108.327 56.5744 108.327 56.5744C102.034 65.6388 89.8447 69.9643 76.8382 66.5876C76.2603 66.4356 75.6911 66.2711 75.1249 66.0926L74.6101 65.9259C74.2077 65.7959 73.8082 65.6579 73.4124 65.5132L72.8719 65.312C72.4371 65.1446 72.0082 64.9727 71.5823 64.792L71.2349 64.6452C70.701 64.4131 70.1752 64.1678 69.6575 63.9115C69.3909 63.7815 69.1288 63.6442 68.8658 63.5091L68.4091 63.2741C68.0727 63.092 67.7378 62.9025 67.4081 62.7086L67.1687 62.5728C66.7589 62.3341 66.3557 62.0873 65.9562 61.8325L65.5905 61.5887C65.3269 61.4183 65.064 61.2443 64.8055 61.0695C64.2481 60.6847 63.7054 60.2823 63.1708 59.8739L62.8028 59.5839C57.11 55.0895 52.5965 48.9457 50.4514 41.9802C48.2027 34.7568 48.6874 26.6479 52.5833 20.0664L47.7974 26.8249ZM68.9437 19.4973C65.4907 24.5791 65.1514 30.8904 67.5476 36.5025C70.0746 42.4604 75.252 47.1333 81.2951 49.3503C81.5441 49.4421 81.7938 49.5244 82.0457 49.6103L82.3769 49.7153C82.733 49.827 83.0863 49.9569 83.4542 50.0267C100.154 53.2535 104.684 41.4573 105.889 39.7205C101.922 45.4332 95.2534 46.8043 87.0717 44.8185C86.4255 44.6621 85.7153 44.4286 85.0926 44.2075C84.2936 43.9226 83.5063 43.598 82.7419 43.2315C81.2893 42.5331 79.9042 41.6864 78.6205 40.717C71.2996 35.1615 66.7516 24.5652 71.5287 15.9355" fill="#0868AC"/>
</svg>
