<svg width="125" height="124" viewBox="0 0 125 124" fill="none" xmlns="http://www.w3.org/2000/svg">
<rect width="124" height="124" transform="translate(0.586182)" fill="white"/>
<path d="M110.403 105.869L108.371 104.019C106.444 101.618 103.966 99.5094 101.365 97.7585C99.2912 96.3612 94.635 94.4739 93.7693 92.2096L93.61 92.0674C95.081 91.9114 96.7984 91.4126 98.1559 91.0705C100.436 90.4973 102.318 90.6454 104.673 90.0751C105.734 89.7907 106.925 89.5056 107.702 89.2212V88.6524C106.925 87.5067 105.816 85.9899 104.519 84.9529C101.124 82.2401 97.4931 79.5295 93.6776 77.2688C91.5616 76.016 88.9833 75.2014 86.7414 74.1389C85.9869 73.7808 84.6806 73.5949 84.1817 72.9998C83.0029 71.5909 82.3727 69.8042 81.4635 68.1627C79.5604 64.7229 77.6954 60.9665 76.0092 57.3472C74.8591 54.8795 74.1108 52.4467 72.6763 50.2327C65.7914 39.6098 58.3819 33.199 46.9029 26.8968C44.459 25.5565 41.5185 25.0278 38.4102 24.335C36.7442 24.2409 35.0758 24.1454 33.4082 24.0498C32.3894 23.6517 31.3303 22.4827 30.376 21.9153C26.5714 19.6605 16.8168 14.7563 13.9999 21.2043C12.2211 25.2742 16.6575 29.2443 18.2443 31.3073C19.3594 32.7527 20.7853 34.3752 21.5803 36.0022C22.1048 37.072 22.1942 38.1447 22.6425 39.2758C23.7444 42.063 24.7026 45.0952 26.1293 47.6701C26.8496 48.974 27.6438 50.3465 28.5553 51.5118C29.1133 52.2272 30.0706 52.5422 30.2222 53.6463C29.2866 54.8758 29.2329 56.785 28.7069 58.3427C26.3368 65.3544 27.232 74.0703 30.6783 79.2597C31.7351 80.8538 34.2264 84.2703 37.6526 82.9591C40.649 81.8142 40.1594 78.2642 41.0166 75.1328C41.2101 74.424 40.8728 73.9019 41.6499 73.4257V73.5679C42.427 75.275 43.2895 76.9829 44.2002 78.6901C46.2207 81.7435 49.5535 84.9339 52.5911 87.0867C54.1663 88.2031 55.6373 90.1327 57.1914 90.7861V90.7125H57.3632C56.9692 89.9832 56.3514 89.8614 55.8479 89.3969C54.6613 88.306 53.341 86.9306 52.3611 85.6799C49.5978 82.1599 47.1563 78.2985 44.9315 74.2876C43.8684 72.3726 42.9445 70.2556 42.0493 68.3071C41.705 67.556 41.7089 66.4169 40.9894 66.0282C40.0079 67.4561 38.5633 68.6097 37.8041 70.2965C36.5911 72.9918 36.4349 76.2792 35.985 79.687C35.7184 79.776 35.8373 79.7147 35.6811 79.8285C33.569 79.3508 32.8277 77.3111 32.0421 75.5602C30.0566 71.1337 29.6883 64.0067 31.4352 58.9122C31.8874 57.593 33.9304 53.4421 33.1028 52.2236C32.708 51.0094 31.4056 50.3056 30.6775 49.3773C29.7753 48.2295 28.8755 46.7185 28.2507 45.3927C26.6258 41.9426 25.8682 38.0681 24.1571 34.5794C23.3388 32.9116 21.9564 31.2234 20.8211 29.7416C19.5645 28.0986 18.1565 26.8888 17.1812 24.9031C16.8354 24.1971 16.3645 23.0668 16.8782 22.3412C17.0413 21.8519 17.2721 21.6477 17.7881 21.488C18.6685 20.8514 21.1163 21.6995 22.0333 22.0561C24.4648 23.0041 26.4945 23.8792 28.5545 25.1597C29.5422 25.7752 30.5431 26.538 31.7382 27.2673H33.1028C35.2374 27.2673 37.6285 27.4365 39.6233 28.0053C43.1473 29.0109 46.3061 30.5883 49.1751 32.2881C57.9141 37.4672 65.0594 44.8458 69.948 53.639C70.7344 55.0552 71.0747 56.4094 71.7671 57.9109C73.1643 60.9395 74.9252 64.057 76.3154 67.0185C77.7032 69.9742 79.0553 72.956 81.0167 75.4151C82.0479 76.7073 86.0296 77.4015 87.8394 78.1198C89.1084 78.6223 91.1871 79.1473 92.3885 79.8263C94.6832 81.1258 96.9064 82.6733 99.0604 84.096C100.136 84.8063 103.443 86.3669 103.609 87.6533C98.2756 87.5162 94.2029 87.9829 90.7208 89.3605C89.7316 89.7521 88.1526 89.763 87.991 90.9261C88.5349 91.4607 88.6196 92.2599 89.0517 92.9177C89.8824 94.1793 91.2866 95.8726 92.5392 96.7594C93.9084 97.7293 95.318 98.7655 96.7852 99.6049C99.3954 101.098 102.308 101.951 104.821 103.447C106.302 104.329 107.897 105.44 109.34 106.434C110.055 106.927 110.032 107.692 111.586 108V107.859C110.81 107.279 110.851 106.478 110.403 105.869ZM35.8327 33.4418C34.7207 33.4221 33.8791 33.5563 33.102 33.7255V33.832H33.2559C33.7866 34.5612 34.723 35.5311 35.3781 36.412L36.8949 39.4078L37.0449 39.2714C37.9844 38.6494 38.4149 37.659 38.4095 36.1422C38.0341 35.771 37.9774 35.3065 37.6526 34.8631C37.219 34.2731 36.379 33.9384 35.8327 33.4418Z" fill="#00618A"/>
</svg>
