<svg width="125" height="124" viewBox="0 0 125 124" fill="none" xmlns="http://www.w3.org/2000/svg">
<rect width="124" height="124" transform="translate(0.586182)" fill="white"/>
<path d="M62.4479 93.9584C92.3476 93.9584 116.586 79.5197 116.586 61.7087C116.586 43.8977 92.3476 29.459 62.4479 29.459C32.5482 29.459 8.30969 43.8977 8.30969 61.7087C8.30969 79.5197 32.5482 93.9584 62.4479 93.9584Z" fill="#8993BE"/>
<path fill-rule="evenodd" clip-rule="evenodd" d="M23.5127 80.8028L29.4459 46.4312H43.1653C49.0981 46.8556 52.0647 50.25 52.0647 56.1913C52.0647 66.3754 45.0195 72.3161 38.7154 71.8916H32.0416L30.5583 80.8028H23.5127ZM33.5245 65.5269L35.3787 52.7964H40.1991C42.7948 52.7964 44.6486 54.0694 44.6486 56.6153C44.2781 63.8295 41.3115 65.1024 37.9744 65.5269H33.5249H33.5245ZM50.6863 71.8916L56.6191 37.5205H63.6646L62.1813 46.4312H68.8556C74.7888 46.8556 77.0135 50.25 76.2721 54.4938L73.6764 71.8916H66.2603L68.856 56.1913C69.2265 54.0694 69.2265 52.7964 66.6313 52.7964H61.069L57.7319 71.8916H50.6863ZM73.2014 80.8028L79.1342 46.4312H92.854C98.7872 46.8556 101.754 50.25 101.754 56.1913C101.754 66.3754 94.7083 72.3161 88.4045 71.8916H81.7299L80.2466 80.8028H73.2014ZM83.2128 65.5269L85.067 52.7964H89.8878C92.4835 52.7964 94.3373 54.0694 94.3373 56.6153C93.9668 63.8295 91.0002 65.1024 87.6631 65.5269H83.2132H83.2128Z" fill="#232531"/>
</svg>
