<svg width="125" height="124" viewBox="0 0 125 124" fill="none" xmlns="http://www.w3.org/2000/svg">
<rect width="124" height="124" transform="translate(0.586182)" fill="white"/>
<path d="M108.608 75.2695C108.186 73.3674 106.467 71.1491 102.993 71.1491C102.278 71.1491 101.499 71.2408 100.623 71.4264C98.9941 71.7587 97.6145 71.9191 96.3976 71.981C105.869 55.8408 112.018 33.4351 105.931 25.6572C97.901 15.4066 87.1072 13.8758 81.3872 13.8758H80.8487C78.7174 13.9124 76.5059 14.1714 74.2853 14.6549L66.0697 16.4264C64.9296 16.2755 63.782 16.189 62.6322 16.1674H62.1739C58.5232 16.1674 55.1912 16.9374 52.228 18.3972L49.3566 17.2674C45.4149 15.7091 39.4909 13.8574 33.6174 13.8574C33.2874 13.8574 32.9643 13.8666 32.632 13.8849C26.8501 14.0912 21.8909 16.2843 18.2747 20.2237C13.7624 25.137 11.7137 32.3351 12.1789 41.6095C12.1972 42.0839 17.8072 89.5008 33.7068 89.5008H33.913C35.9824 89.4481 37.9509 88.6139 39.7866 87.0303C41.1914 88.0845 43.0087 88.7033 44.6999 88.9553C45.8205 89.2235 47.8326 89.5901 50.2412 89.5901C53.1859 89.5901 55.8466 88.9897 58.1291 87.8989C58.1291 89.9224 58.1199 92.4731 58.0924 95.7318V95.9106L58.1016 96.0801C58.3262 99.3297 58.8899 102.256 59.7287 104.559C62.1395 111.111 66.3012 114.718 71.4391 114.718C71.6545 114.718 71.8791 114.718 72.0922 114.7C76.3272 114.441 80.6172 112.06 83.5597 108.345C86.7566 104.326 87.4899 100.081 87.7764 96.8318L87.7947 96.6255V87.083L88.0285 87.1014L89.0299 87.193L89.1285 87.1999H89.2201C89.5043 87.2183 89.7999 87.2274 90.0955 87.2274C93.5514 87.2274 97.8024 86.3222 100.676 84.9885C103.426 83.7189 109.701 80.2172 108.608 75.2672V75.2695Z" fill="white"/>
<path d="M83.2111 84.9177C83.2111 84.4525 83.2386 84.0583 83.2569 83.6206L83.2111 82.626L83.2821 82.5733C83.6236 76.45 85.3148 74.085 87.1229 72.7421C86.8709 72.3937 86.5775 72.0179 86.3094 71.6604C85.5486 70.6566 84.5907 69.4146 83.5777 67.8196L83.3898 67.4621C83.2386 67.0862 82.8627 66.4308 82.3884 65.5829C79.6842 60.6764 74.0352 50.4716 77.9036 44.0252C79.5948 41.2064 82.7619 39.5771 87.3452 39.1737C85.4661 33.8571 78.4581 21.01 62.5494 20.751H62.5402C48.6917 20.5264 44.145 33.1031 42.6692 40.6243C44.6996 39.765 47.0371 39.2356 49.1684 39.2356H49.2669C54.5125 39.2723 58.1196 42.075 59.1669 46.9264C59.9369 50.4785 60.3036 53.586 60.2944 56.4414C60.2761 62.6725 59.0134 65.9496 57.9111 68.8393L57.5559 69.7721C57.2694 70.5421 56.9738 71.2479 56.685 71.9193C56.4009 72.6068 56.1396 73.2096 55.9609 73.7641C57.0723 74.0162 57.9409 74.3646 58.539 74.6327L58.8804 74.7839C58.9881 74.8298 59.0959 74.8825 59.1944 74.9375C61.1354 76.1177 62.3523 77.935 62.6136 80.0571C62.7465 81.2029 62.7281 88.9808 62.6754 95.7664C62.8817 98.7135 63.3744 101.184 64.0367 102.974C64.9763 105.524 67.3138 110.403 71.8146 110.126C74.9565 109.929 77.9746 108.013 79.9798 105.497C82.1271 102.793 82.9154 99.7952 83.2202 96.4287V84.9177H83.2111Z" fill="#0277BD"/>
<path d="M42.2203 73.2719C38.5239 69.4127 36.7249 64.2198 37.4055 59.3867C38.0587 54.7231 37.6805 50.1673 37.4857 47.7061C37.4323 47.1191 37.3964 46.5306 37.378 45.9415C37.378 45.9231 37.3872 45.9071 37.3872 45.8888C37.3872 45.8796 37.378 45.8796 37.378 45.8704C37.6553 38.9427 40.3228 28.0183 47.6722 21.5306C44.1018 20.1167 38.2649 18.2627 32.7947 18.4598C24.2193 18.7738 15.9212 24.7 16.753 41.3765C17.067 47.6327 24.1391 85.1519 33.8053 84.9181C35.1849 84.8815 36.6172 83.9969 38.093 82.2231C40.1094 79.8062 42.1785 77.4338 44.2989 75.1075C43.5578 74.5525 42.8627 73.9386 42.2203 73.2719ZM92.4307 40.7577C92.4674 41.1175 92.4307 41.4131 92.378 41.6973C92.4491 43.8033 92.2268 45.8521 91.993 47.8298C91.8016 49.3165 91.6701 50.8104 91.5989 52.3077C91.553 53.7836 91.7593 55.2411 91.9839 56.7833C92.4949 60.3996 93.0312 64.4811 90.2284 69.2431C90.7395 69.9238 91.1955 70.5494 91.5645 71.159C102.127 54.0333 106.378 33.6673 102.324 28.4767C96.173 20.6254 87.6572 18.3521 80.9197 18.4598C78.8068 18.4965 76.8909 18.7806 75.2524 19.1313C86.8826 24.7688 92.0641 36.855 92.4307 40.7577ZM101.545 75.9119C95.4397 77.1746 92.5041 76.5031 91.0718 75.6254C90.8472 75.7858 90.6134 75.9302 90.4003 76.0654C89.5501 76.5742 88.198 77.3992 87.8657 82.4385C88.0628 82.4752 88.2255 82.4913 88.4295 82.5371L89.4332 82.6265C92.4582 82.7617 96.4159 81.9183 98.742 80.8367C103.747 78.5083 106.476 74.9013 101.545 75.9119ZM58.0557 80.6029C57.9664 79.9223 57.5997 79.3677 56.9282 78.93L56.6762 78.8223C55.8557 78.4556 54.9139 78.0431 53.4197 78.0431H53.4105C53.1149 78.0706 52.8284 78.089 52.542 78.089C52.4159 78.089 52.3014 78.0706 52.1845 78.0706C51.1005 78.9025 49.5537 79.5465 45.7312 80.3348C38.902 82.0719 42.9353 84.1298 45.5501 84.4438C48.0847 85.0786 54.1095 85.8486 58.1084 82.5898C58.112 81.9271 58.0944 81.2645 58.0557 80.6029Z" fill="#0277BD"/>
<path d="M54.9776 49.3967C54.3131 50.0956 53.2589 50.6937 52.0856 50.5058C50.1881 50.2033 48.7374 47.9117 48.8451 47.0523C48.9437 46.1929 50.5639 45.746 52.4522 46.0577C53.1168 46.1654 53.7126 46.3533 54.2168 46.5779C53.4835 45.0013 52.1566 44.0892 50.1331 43.8738C46.5443 43.4704 42.7401 45.3404 41.9793 46.3808C41.9885 46.6398 42.0251 46.9606 42.0504 47.3388C42.2658 49.9696 42.6599 54.8669 41.9358 60.0323C41.4591 63.4331 42.8387 67.2923 45.5245 70.1019C47.2616 71.9123 49.2829 73.0581 51.2881 73.3973C51.5401 72.2973 51.9962 71.2294 52.4614 70.1294C52.7204 69.5198 52.9976 68.8758 53.2589 68.1769L53.6256 67.2029C54.6362 64.5515 55.6835 61.8129 55.711 56.4229C55.7201 54.3467 55.4589 51.984 54.9776 49.3967ZM87.446 57.4358C87.2031 55.7629 86.9624 54.0327 87.0151 52.1535C87.0701 50.4531 87.2581 48.8513 87.446 47.3021C87.5789 46.076 87.6958 44.9027 87.7576 43.75C84.8037 43.9906 82.8443 44.85 81.9139 46.2915C82.3336 46.1435 82.7688 46.0435 83.211 45.9935C85.262 45.7254 86.747 46.3167 86.9166 47.4533C87.0518 48.2875 86.3437 49.0644 86.0297 49.3692C85.3949 49.9879 84.5974 50.3821 83.7839 50.4898C82.8615 50.5899 81.9339 50.354 81.1714 49.8252C81.4304 54.3467 84.7601 60.399 86.3964 63.3621C86.7562 63.9969 87.0243 64.5079 87.2489 64.9365C88.1427 62.3767 87.8126 60.0415 87.446 57.4358Z" fill="#0277BD"/>
</svg>
