<svg width="125" height="124" viewBox="0 0 125 124" fill="none" xmlns="http://www.w3.org/2000/svg">
<rect width="124" height="124" transform="translate(0.586182)" fill="white"/>
<path d="M62.5862 71.2623C67.7017 71.2623 71.8487 67.1153 71.8487 61.9998C71.8487 56.8843 67.7017 52.7373 62.5862 52.7373C57.4706 52.7373 53.3237 56.8843 53.3237 61.9998C53.3237 67.1153 57.4706 71.2623 62.5862 71.2623Z" fill="#67CCF7"/>
<path d="M97.7674 46.7248C95.9799 46.0748 94.1111 45.4248 92.1611 44.8561C92.6486 42.9061 93.0549 40.9561 93.3799 39.0873C95.0861 28.3623 93.2174 20.8061 88.0174 17.8811C86.4736 16.9873 84.7674 16.5811 82.8174 16.5811C77.1299 16.5811 69.8986 20.8061 62.5861 27.8748C55.2736 20.8061 48.0424 16.5811 42.3549 16.5811C40.4049 16.5811 38.6986 16.9873 37.1549 17.8811C31.9549 20.8873 30.0861 28.4436 31.7924 39.0873C32.1174 40.9561 32.5236 42.9061 33.0111 44.8561C31.0611 45.4248 29.1924 45.9936 27.4049 46.7248C17.2486 50.6248 11.7236 55.9873 11.7236 61.9998C11.7236 68.0123 17.3299 73.3748 27.4049 77.2748C29.1924 77.9248 31.0611 78.5748 33.0111 79.1436C32.5236 81.0936 32.1174 83.0436 31.7924 84.9123C30.0861 95.6373 31.9549 103.194 37.1549 106.119C38.6986 107.012 40.4049 107.419 42.3549 107.419C48.1236 107.419 55.3549 103.194 62.5861 96.1248C69.8986 103.194 77.1299 107.419 82.8174 107.419C84.7674 107.419 86.4736 107.012 88.0174 106.119C93.2174 103.112 95.0861 95.5561 93.3799 84.9123C93.0549 83.0436 92.6486 81.0936 92.1611 79.1436C94.1111 78.5748 95.9799 78.0061 97.7674 77.2748C107.924 73.3748 113.449 68.0123 113.449 61.9998C113.449 55.9873 107.924 50.6248 97.7674 46.7248ZM85.7424 21.9436C89.0736 23.8936 90.2111 29.9061 88.8299 38.4373C88.5861 40.1436 88.1799 41.9311 87.6924 43.7998C83.4674 42.8248 78.9986 42.1748 74.2861 41.7686C71.5236 37.8686 68.6799 34.3748 65.8361 31.2061C71.8486 25.2748 77.9424 21.2123 82.8986 21.2123C83.9549 21.2123 84.9299 21.4561 85.7424 21.9436ZM76.6424 70.1248C75.1799 72.7248 73.4736 75.3248 71.6861 77.9248C68.6799 78.1686 65.6736 78.2498 62.5861 78.2498C59.4174 78.2498 56.4111 78.1686 53.4861 77.9248C51.6986 75.3248 50.0736 72.7248 48.6111 70.1248C47.0674 67.4436 45.6049 64.6811 44.3049 61.9998C45.6049 59.3186 47.0674 56.5561 48.6111 53.8748C50.0736 51.2748 51.7799 48.6748 53.5674 46.0748C56.5736 45.8311 59.5799 45.7498 62.6674 45.7498C65.8361 45.7498 68.8424 45.8311 71.7674 46.0748C73.5549 48.6748 75.1799 51.2748 76.6424 53.8748C78.1861 56.5561 79.6486 59.3186 80.9486 61.9998C79.5674 64.6811 78.1861 67.3623 76.6424 70.1248ZM83.3861 67.4436C84.6049 70.2873 85.5799 73.0498 86.4736 75.8123C83.7111 76.4623 80.7861 76.9498 77.6986 77.3561C78.6736 75.8123 79.7299 74.1873 80.6236 72.4811C81.5986 70.7748 82.4924 69.0686 83.3861 67.4436ZM62.5861 89.4623C60.6361 87.3498 58.7674 85.0748 56.9799 82.7186C58.8486 82.7998 60.7174 82.8811 62.5861 82.8811C64.4549 82.8811 66.3236 82.7998 68.1924 82.7186C66.4049 85.0748 64.5361 87.3498 62.5861 89.4623ZM47.4736 77.2748C44.3861 76.8686 41.4611 76.3811 38.6986 75.7311C39.5924 73.0498 40.5674 70.2061 41.7861 67.3623C42.6799 68.9873 43.5736 70.6936 44.5486 72.3186C45.5236 74.1061 46.4986 75.6498 47.4736 77.2748ZM41.7861 56.5561C40.5674 53.7123 39.5924 50.9498 38.6986 48.1873C41.4611 47.5373 44.3861 47.0498 47.4736 46.6436C46.4986 48.1873 45.4424 49.8123 44.5486 51.5186C43.5736 53.2248 42.6799 54.9311 41.7861 56.5561ZM62.5861 34.5373C64.5361 36.6498 66.4049 38.9248 68.1924 41.2811C66.3236 41.1998 64.4549 41.1186 62.5861 41.1186C60.7174 41.1186 58.8486 41.1998 56.9799 41.2811C58.7674 38.9248 60.6361 36.6498 62.5861 34.5373ZM80.6236 51.5998L77.6986 46.7248C80.7861 47.1311 83.7111 47.6186 86.4736 48.2686C85.5799 50.9498 84.6049 53.7936 83.3861 56.6373C82.4924 54.9311 81.5986 53.2248 80.6236 51.5998ZM36.3424 38.4373C34.9611 29.9061 36.0986 23.8936 39.4299 21.9436C40.2424 21.4561 41.2174 21.2123 42.2736 21.2123C47.1486 21.2123 53.2424 25.1936 59.3361 31.2061C56.4924 34.2936 53.6486 37.8686 50.8861 41.7686C46.1736 42.1748 41.7049 42.9061 37.4799 43.7998C36.9924 41.9311 36.6674 40.1436 36.3424 38.4373ZM16.2736 61.9998C16.2736 58.1811 20.9049 54.1186 29.0299 51.1123C30.6549 50.4623 32.4424 49.8936 34.2299 49.4061C35.5299 53.4686 37.1549 57.7748 39.1049 62.0811C37.1549 66.3873 35.4486 70.6123 34.2299 74.6748C23.0174 71.4248 16.2736 66.5498 16.2736 61.9998ZM39.4299 102.056C36.0986 100.106 34.9611 94.0936 36.3424 85.5623C36.5861 83.8561 36.9924 82.0686 37.4799 80.1998C41.7049 81.1748 46.1736 81.8248 50.8861 82.2311C53.6486 86.1311 56.4924 89.6248 59.3361 92.7936C53.3236 98.7248 47.2299 102.787 42.2736 102.787C41.2174 102.787 40.2424 102.544 39.4299 102.056ZM88.8299 85.5623C90.2111 94.0936 89.0736 100.106 85.7424 102.056C84.9299 102.544 83.9549 102.787 82.8986 102.787C78.0236 102.787 71.9299 98.8061 65.8361 92.7936C68.6799 89.7061 71.5236 86.1311 74.2861 82.2311C78.9986 81.8248 83.4674 81.0936 87.6924 80.1998C88.1799 82.0686 88.5049 83.8561 88.8299 85.5623ZM96.1424 72.8873C94.5174 73.5373 92.7299 74.1061 90.9424 74.5936C89.6424 70.5311 88.0174 66.2248 86.0674 61.9186C88.0174 57.6123 89.7236 53.3873 90.9424 49.3248C102.155 52.5748 108.899 57.4498 108.899 61.9998C108.899 65.8186 104.186 69.8811 96.1424 72.8873Z" fill="#67CCF7"/>
</svg>
