<svg width="125" height="124" viewBox="0 0 125 124" fill="none" xmlns="http://www.w3.org/2000/svg">
<rect width="124" height="124" transform="translate(0.586243)" fill="white"/>
<path d="M97.8448 67.9437C94.3921 67.9632 91.4023 68.7924 88.8947 70.0271C87.9688 68.1946 87.043 66.5934 86.8888 65.3977C86.7152 64.0089 86.5031 63.16 86.7152 61.5013C86.9272 59.8423 87.8917 57.489 87.8917 57.2961C87.8722 57.1225 87.6793 56.2738 85.6927 56.2545C83.7062 56.2352 81.9892 56.6403 81.7963 57.1611C81.6035 57.6819 81.2177 58.8778 80.9669 60.1123C80.6197 61.9255 76.9934 68.3488 74.9294 71.7243C74.2543 70.4127 73.6757 69.2553 73.5597 68.3293C73.3863 66.9407 73.174 66.0917 73.3863 64.4331C73.5985 62.774 74.563 60.421 74.563 60.2281C74.5437 60.0545 74.3508 59.2057 72.3642 59.1865C70.3772 59.1672 68.6607 59.5722 68.4678 60.093C68.2749 60.6138 68.0627 61.8483 67.6384 63.0443C67.2331 64.2402 62.4109 74.9649 61.1571 77.7618C60.5205 79.1892 59.9614 80.3272 59.5561 81.0988C59.151 81.8704 59.5368 81.1567 59.4982 81.2338C59.151 81.8897 58.9581 82.2561 58.9581 82.2561V82.2756C58.6881 82.7579 58.3987 83.2206 58.2635 83.2206C58.1671 83.2206 57.9742 81.9282 58.3021 80.1538C59.0158 76.4309 60.7518 70.625 60.7327 70.4129C60.7327 70.3164 61.0604 69.2939 59.6138 68.7733C58.2057 68.2525 57.7043 69.1205 57.5884 69.1205C57.4727 69.1205 57.3762 69.4291 57.3762 69.4291C57.3762 69.4291 58.9386 62.8903 54.3864 62.8903C51.5317 62.8903 47.5967 65.9959 45.6485 68.8314C44.414 69.5065 41.7907 70.9337 39.0131 72.4577C37.9522 73.0364 36.8527 73.6536 35.8111 74.213L35.5991 73.9811C30.0824 68.098 19.8785 63.9316 20.3029 56.0231C20.4572 53.149 21.4602 45.5684 39.9008 36.3868C55.0041 28.8641 67.0983 30.928 69.2006 35.5188C72.1904 42.0771 62.7388 54.2678 47.0377 56.0231C41.0581 56.6982 37.9138 54.3835 37.1231 53.5155C36.2937 52.6089 36.178 52.5703 35.8693 52.7439C35.3678 53.014 35.6765 53.8241 35.8693 54.3063C36.3323 55.5215 38.2612 57.6819 41.5403 58.7621C44.4142 59.7073 51.4356 60.2281 59.9228 56.9489C69.4323 53.2647 76.8586 43.0415 74.6789 34.4965C72.4606 25.7971 58.0324 22.9424 44.3951 27.7839C36.2742 30.6773 27.4784 35.1909 21.1516 41.1126C13.6289 48.1338 12.433 54.2678 12.9345 56.8139C14.69 65.899 27.2084 71.8208 32.2235 76.1994C31.9728 76.3342 31.7413 76.4692 31.5291 76.5852C29.0215 77.8195 19.4735 82.8155 17.0816 88.1005C14.3812 94.0801 17.506 98.3818 19.5892 98.9605C26.0317 100.754 32.6286 97.5331 36.1971 92.2286C39.7461 86.9241 39.3219 80.0379 37.6823 76.8938L37.6243 76.7781L39.5917 75.6207C40.865 74.8684 42.1188 74.174 43.2181 73.5759C42.601 75.254 42.1572 77.2408 41.9259 80.1342C41.6559 83.5292 43.0447 87.9269 44.8771 89.6629C45.6873 90.415 46.6517 90.4345 47.2497 90.4345C49.3715 90.4345 50.3359 88.679 51.3968 86.5767C52.7085 84.0113 53.8658 81.0407 53.8658 81.0407C53.8658 81.0407 52.4191 89.0843 56.3734 89.0843C57.8201 89.0843 59.2668 87.2132 59.9226 86.2488V86.2681C59.9226 86.2681 59.9612 86.2102 60.0383 86.0752C60.1193 85.9555 60.1964 85.8334 60.2698 85.7089V85.6703C60.8485 84.6673 62.1408 82.3719 64.0697 78.5719C66.5578 73.6725 68.9498 67.5386 68.9498 67.5386C68.9498 67.5386 69.1813 69.0432 69.895 71.5122C70.3192 72.9783 71.245 74.5791 71.9587 76.1415C71.3801 76.9517 71.0329 77.4148 71.0329 77.4148L71.0522 77.4341C70.5894 78.0513 70.0684 78.7074 69.5285 79.363C67.561 81.7162 65.2078 84.3976 64.8992 85.1692C64.5327 86.0756 64.6098 86.7507 65.3235 87.291C65.8443 87.6768 66.7702 87.7537 67.7539 87.6768C69.5285 87.5608 70.763 87.1174 71.3803 86.8471C72.3447 86.4999 73.4442 85.9791 74.5051 85.2076C76.434 83.7804 77.6106 81.755 77.4949 79.0546C77.437 77.5693 76.9548 76.1033 76.3568 74.7145C76.5304 74.4638 76.7042 74.2128 76.8776 73.943C79.9253 69.487 82.2786 64.5878 82.2786 64.5878C82.2786 64.5878 82.51 66.0923 83.2237 68.5613C83.59 69.8151 84.3232 71.1848 84.979 72.535C82.1243 74.869 80.3304 77.5695 79.7131 79.3441C78.5751 82.6232 79.4624 84.1085 81.1405 84.4557C81.8926 84.61 82.973 84.2628 83.7829 83.9156C84.786 83.5877 86.0012 83.0281 87.1201 82.1989C89.049 80.7715 90.9008 78.7847 90.8043 76.1035C90.7465 74.869 90.4185 73.6538 89.9749 72.4965C92.4053 71.4934 95.5492 70.9148 99.5423 71.397C108.126 72.4 109.823 77.7624 109.496 79.9999C109.168 82.2376 107.374 83.4719 106.776 83.8577C106.178 84.2242 105.985 84.3594 106.043 84.6293C106.12 85.0345 106.39 85.0151 106.911 84.9381C107.624 84.8222 111.424 83.1056 111.579 78.978C111.81 73.6727 106.776 67.886 97.8448 67.9437ZM31.6449 90.2611C28.8094 93.3666 24.8165 94.5433 23.1191 93.5402C21.2866 92.4793 22.0001 87.9078 25.4917 84.6094C27.6134 82.6034 30.3718 80.7516 32.1849 79.6136C32.59 79.3628 33.2073 78.9965 33.9402 78.5527C34.056 78.4757 34.1331 78.4369 34.1331 78.4369C34.2682 78.3598 34.4225 78.2633 34.5768 78.1669C35.8692 82.8734 34.6347 87.0013 31.6449 90.2611ZM52.3806 76.1608C51.3968 78.5719 49.3136 84.7637 48.0598 84.4165C46.9794 84.1272 46.3238 79.4399 47.8475 74.8106C48.619 72.4764 50.2586 69.699 51.223 68.6186C52.7856 66.8826 54.4829 66.3039 54.9074 67.0176C55.4089 67.9437 52.9978 74.6563 52.3806 76.1608ZM69.4899 84.3394C69.0656 84.5517 68.6798 84.7059 68.5062 84.5903C68.3712 84.5132 68.6796 84.2238 68.6796 84.2238C68.6796 84.2238 70.8207 81.9284 71.6694 80.8675C72.1516 80.2505 72.7303 79.5368 73.3476 78.7265V78.9579C73.3477 81.7353 70.6859 83.5871 69.4899 84.3394ZM82.6834 81.3303C82.3748 81.0988 82.4136 80.3851 83.455 78.1476C83.8603 77.2603 84.786 75.775 86.3869 74.3669C86.5798 74.9456 86.6958 75.5048 86.6763 76.0258C86.6572 79.4978 84.1882 80.7902 82.6834 81.3303Z" fill="#CF649A"/>
</svg>
