<svg width="125" height="124" viewBox="0 0 125 124" fill="none" xmlns="http://www.w3.org/2000/svg">
<rect width="124" height="124" transform="translate(0.586182)" fill="white"/>
<path d="M63.0862 14.97C72.3646 14.9345 81.4365 17.7078 89.109 22.9254C94.0775 26.2433 98.3429 30.5086 101.661 35.4771C106.87 43.1558 109.655 52.2211 109.655 61.5C109.655 70.7789 106.87 79.8442 101.661 87.5228C98.3429 92.4913 94.0775 96.7567 89.109 100.075C81.4304 105.284 72.3651 108.069 63.0862 108.069C53.8073 108.069 44.742 105.284 37.0633 100.075C32.0948 96.7567 27.8295 92.4913 24.5116 87.5228C19.3024 79.8442 16.5176 70.7789 16.5176 61.5C16.5176 52.2211 19.3024 43.1558 24.5116 35.4771C27.8295 30.5086 32.0948 26.2433 37.0633 22.9254C44.7359 17.7078 53.8078 14.9345 63.0862 14.97ZM63.0862 12C53.296 12 43.7257 14.9031 35.5855 20.3423C27.4452 25.7814 21.1007 33.5122 17.3542 42.5572C13.6076 51.6021 12.6274 61.5549 14.5373 71.157C16.4473 80.759 21.1617 89.5791 28.0844 96.5018C35.0071 103.424 43.8272 108.139 53.4292 110.049C63.0313 111.959 72.9841 110.979 82.029 107.232C91.074 103.485 98.8048 97.1409 104.244 89.0007C109.683 80.8605 112.586 71.2902 112.586 61.5C112.586 48.3718 107.371 35.7813 98.088 26.4982C88.8049 17.2152 76.2144 12 63.0862 12Z" fill="#39759B"/>
<path d="M21.8242 61.4988C21.8252 69.2471 24.0078 76.8386 28.1223 83.4042C32.2368 89.9698 38.1168 95.2443 45.0892 98.6238L25.3953 44.7042C23.0484 49.9926 21.8321 55.713 21.8242 61.4988ZM90.9474 59.4127C90.86 55.3612 89.6348 51.416 87.4117 48.0277C85.2022 45.2444 83.8071 41.9033 83.381 38.3752C83.3477 37.426 83.5061 36.4798 83.8465 35.593C84.187 34.7063 84.7026 33.8973 85.3626 33.2142C86.0226 32.5311 86.8134 31.988 87.6879 31.6172C88.5624 31.2465 89.5026 31.0557 90.4524 31.0563H90.9828C86.581 27.0167 81.3538 23.9821 75.6632 22.1625C69.9725 20.343 63.9544 19.7821 58.0255 20.5185C52.0966 21.255 46.3987 23.2713 41.3262 26.4279C36.2536 29.5844 31.9278 33.8057 28.6481 38.7995H31.2999C35.6135 38.7995 42.296 38.2692 42.296 38.2692C42.7649 38.2317 43.2294 38.3819 43.5875 38.6869C43.9455 38.992 44.1678 39.4267 44.2053 39.8956C44.2428 40.3645 44.0925 40.829 43.7875 41.1871C43.4825 41.5451 43.0477 41.7674 42.5789 41.8049C42.5789 41.8049 40.316 42.0524 37.841 42.1938L52.8324 86.8499L61.8485 59.7663L55.4489 42.0877C53.2214 42.0877 51.0999 41.6988 51.0999 41.6988C50.6311 41.6613 50.1963 41.4391 49.8913 41.081C49.5863 40.7229 49.436 40.2584 49.4735 39.7895C49.511 39.3207 49.7332 38.8859 50.0913 38.5809C50.4494 38.2759 50.9139 38.1256 51.3828 38.1631C51.3828 38.1631 58.1714 38.6934 62.2374 38.6934C66.3035 38.6934 73.2335 38.1631 73.2335 38.1631C73.4657 38.1468 73.6987 38.1765 73.9194 38.2503C74.1402 38.3241 74.3442 38.4407 74.5198 38.5934C74.6955 38.746 74.8393 38.9318 74.9432 39.1401C75.047 39.3484 75.1088 39.575 75.1251 39.8072C75.1414 40.0394 75.1117 40.2724 75.0379 40.4931C74.9641 40.7138 74.8475 40.9179 74.6948 41.0935C74.5421 41.2692 74.3564 41.413 74.1481 41.5169C73.9398 41.6207 73.7132 41.6825 73.481 41.6988C73.481 41.6988 71.2535 41.9463 68.7785 42.0877L83.6638 86.4256L87.836 73.0252C89.527 68.6624 90.5751 64.077 90.9474 59.4127ZM63.7931 65.0345L51.4181 101.063C55.2054 102.188 59.1353 102.76 63.086 102.761C67.7475 102.742 72.3728 101.941 76.7692 100.392C76.654 100.202 76.5592 100 76.4864 99.7906L63.7931 65.0345ZM99.1503 41.6281C99.3391 43.0345 99.4335 44.4519 99.4331 45.8709C99.3514 50.9547 98.2827 55.9741 96.2863 60.6502L83.6992 97.0681C92.9939 91.6841 99.8227 82.8877 102.734 72.5484C105.646 62.2091 104.411 51.1419 99.2917 41.6988L99.1503 41.6281Z" fill="#39759B"/>
</svg>
