<svg width="359" height="214" viewBox="0 0 359 214" fill="none" xmlns="http://www.w3.org/2000/svg">
<rect width="359" height="214" fill="white"/>
<path d="M295.585 57.2954L300.555 52.4358C301.207 51.7973 302.251 51.7973 302.904 52.4358L306.698 56.1468C307.351 56.7853 308.395 56.7853 309.048 56.1468L312.842 52.4358C313.495 51.7973 314.539 51.7973 315.191 52.4358L318.986 56.1468C319.639 56.7853 320.682 56.7853 321.335 56.1468L325.13 52.4358C325.783 51.7973 326.826 51.7973 327.479 52.4358L331.274 56.1468C331.927 56.7853 332.97 56.7853 333.623 56.1468L338.592 51.2871" stroke="#2B2D42" stroke-width="0.671984"/>
<path d="M168.532 21.3737L172.158 17.8284C172.811 17.1899 173.854 17.1899 174.507 17.8284L176.958 20.225C177.611 20.8635 178.654 20.8635 179.307 20.225L181.758 17.8284C182.41 17.1899 183.454 17.1899 184.107 17.8284L186.557 20.225C187.21 20.8635 188.254 20.8635 188.907 20.225L191.357 17.8284C192.01 17.1899 193.054 17.1899 193.706 17.8284L196.157 20.225C196.81 20.8635 197.853 20.8635 198.506 20.225L202.132 16.6797" stroke="#2B2D42" stroke-width="0.671984"/>
<path d="M162 130.461L165.625 126.915C166.278 126.277 167.322 126.277 167.974 126.915L170.425 129.312C171.078 129.95 172.121 129.95 172.774 129.312L175.225 126.915C175.878 126.277 176.921 126.277 177.574 126.915L180.025 129.312C180.678 129.95 181.721 129.95 182.374 129.312L184.825 126.915C185.478 126.277 186.521 126.277 187.174 126.915L189.625 129.312C190.278 129.95 191.321 129.95 191.974 129.312L195.599 125.767" stroke="#2B2D42" stroke-width="0.671984"/>
<path d="M283.49 192.73L287.115 189.185C287.768 188.546 288.811 188.546 289.464 189.185L291.915 191.581C292.568 192.22 293.611 192.22 294.264 191.581L296.715 189.185C297.367 188.546 298.411 188.546 299.064 189.185L301.514 191.581C302.167 192.22 303.211 192.22 303.864 191.581L306.314 189.185C306.967 188.546 308.011 188.546 308.664 189.185L311.114 191.581C311.767 192.22 312.81 192.22 313.463 191.581L317.089 188.036" stroke="#2B2D42" stroke-width="0.671984"/>
<path d="M15.368 153.093L20.7212 147.858C21.3741 147.219 22.4175 147.219 23.0704 147.858L27.2491 151.944C27.902 152.583 28.9454 152.583 29.5983 151.944L33.7769 147.858C34.4298 147.219 35.4732 147.219 36.1261 147.858L40.3048 151.944C40.9577 152.583 42.001 152.583 42.6539 151.944L46.8326 147.858C47.4855 147.219 48.5289 147.219 49.1818 147.858L53.3605 151.944C54.0134 152.583 55.0567 152.583 55.7096 151.944L61.0629 146.709" stroke="#2B2D42" stroke-width="0.671984"/>
<path d="M11.3361 51.2543L14.6729 47.4869C14.9403 47.185 15.4116 47.185 15.679 47.4869L18.5128 50.6864C18.7802 50.9883 19.2515 50.9883 19.5189 50.6864L22.3527 47.4869C22.6202 47.185 23.0914 47.185 23.3588 47.4869L26.1926 50.6864C26.4601 50.9883 26.9313 50.9883 27.1987 50.6864L30.0326 47.4869C30.3 47.185 30.7712 47.185 31.0386 47.4869L33.8725 50.6864C34.1399 50.9883 34.6111 50.9883 34.8785 50.6864L38.2154 46.9189" stroke="#2B2D42" stroke-width="0.671984"/>
<path d="M295.585 121.509L297.955 118.745C298.223 118.432 298.707 118.432 298.975 118.745L300.835 120.914C301.103 121.227 301.587 121.227 301.855 120.914L303.715 118.745C303.983 118.432 304.467 118.432 304.735 118.745L306.595 120.914C306.863 121.227 307.347 121.227 307.615 120.914L309.475 118.745C309.743 118.432 310.227 118.432 310.495 118.745L312.355 120.914C312.623 121.227 313.107 121.227 313.375 120.914L315.745 118.149" stroke="#2B2D42" stroke-width="0.671984"/>
<path d="M59.4729 71.1106C59.7316 70.6626 60.3782 70.6626 60.6369 71.1106L65.5835 79.6784C65.8421 80.1264 65.5188 80.6864 65.0015 80.6864H55.1083C54.591 80.6864 54.2677 80.1264 54.5263 79.6784L59.4729 71.1106Z" stroke="#2B2D42" stroke-width="0.671984"/>
<path d="M184.462 189.716C184.721 189.268 185.367 189.268 185.626 189.716L189.7 196.772C189.958 197.22 189.635 197.78 189.118 197.78H180.97C180.453 197.78 180.13 197.22 180.388 196.772L184.462 189.716Z" stroke="#2B2D42" stroke-width="0.671984"/>
<path d="M342.378 88.9182C342.637 88.4703 343.283 88.4703 343.542 88.9182L346.161 93.4541C346.42 93.9021 346.096 94.4621 345.579 94.4621H340.341C339.824 94.4621 339.501 93.9021 339.759 93.4541L342.378 88.9182Z" stroke="#2B2D42" stroke-width="0.671984"/>
<path d="M198.904 80.3341C199.391 79.4908 200.609 79.4908 201.096 80.3341L205.252 87.5341C205.739 88.3774 205.131 89.4316 204.157 89.4316H195.843C194.869 89.4316 194.261 88.3774 194.748 87.5341L198.904 80.3341Z" stroke="#2B2D42" stroke-width="0.67"/>
<circle cx="329.52" cy="153.093" r="6.38385" stroke="#2B2D42" stroke-width="0.671984"/>
<circle cx="127.72" cy="98.4864" r="6.38385" stroke="#2B2D42" stroke-width="0.671984"/>
<circle cx="14.864" cy="111.597" r="3.52792" stroke="#2B2D42" stroke-width="0.671984"/>
<circle cx="342.864" cy="16.8639" r="3.52792" stroke="#2B2D42" stroke-width="0.671984"/>
<line x1="56.6949" y1="111.094" x2="72.4865" y2="111.094" stroke="#2B2D42" stroke-width="0.671984" stroke-linejoin="round"/>
<line x1="49.975" y1="111.094" x2="54.3429" y2="111.094" stroke="#2B2D42" stroke-width="0.671984" stroke-linejoin="round"/>
<line y1="-0.335992" x2="15.7916" y2="-0.335992" transform="matrix(-1 0 0 1 279.865 84.8779)" stroke="#2B2D42" stroke-width="0.671984" stroke-linejoin="round"/>
<line y1="-0.335992" x2="4.36789" y2="-0.335992" transform="matrix(-1 0 0 1 286.585 84.8779)" stroke="#2B2D42" stroke-width="0.671984" stroke-linejoin="round"/>
<line y1="-0.335992" x2="15.7916" y2="-0.335992" transform="matrix(-1 0 0 1 26.7916 16)" stroke="#2B2D42" stroke-width="0.671984" stroke-linejoin="round"/>
<line y1="-0.335992" x2="4.36789" y2="-0.335992" transform="matrix(-1 0 0 1 33.5114 16)" stroke="#2B2D42" stroke-width="0.671984" stroke-linejoin="round"/>
<line x1="123.557" y1="49.6064" x2="162.532" y2="49.6064" stroke="#2B2D42" stroke-width="0.671984" stroke-linejoin="round"/>
<line x1="108.774" y1="49.6064" x2="118.182" y2="49.6064" stroke="#2B2D42" stroke-width="0.671984" stroke-linejoin="round"/>
<line x1="93.9901" y1="49.6064" x2="103.398" y2="49.6064" stroke="#2B2D42" stroke-width="0.671984" stroke-linejoin="round"/>
<line y1="-0.335992" x2="38.9751" y2="-0.335992" transform="matrix(-1 0 0 1 242.835 163.844)" stroke="#2B2D42" stroke-width="0.671984" stroke-linejoin="round"/>
<line y1="-0.335992" x2="9.40777" y2="-0.335992" transform="matrix(-1 0 0 1 256.61 163.844)" stroke="#2B2D42" stroke-width="0.671984" stroke-linejoin="round"/>
<line y1="-0.335992" x2="33.5992" y2="-0.335992" transform="matrix(-1 0 0 1 73.8304 190.723)" stroke="#2B2D42" stroke-width="0.671984" stroke-linejoin="round"/>
<line y1="-0.335992" x2="9.40777" y2="-0.335992" transform="matrix(-1 0 0 1 110.118 190.723)" stroke="#2B2D42" stroke-width="0.671984" stroke-linejoin="round"/>
<line y1="-0.335992" x2="13.4397" y2="-0.335992" transform="matrix(-1 0 0 1 93.99 190.723)" stroke="#2B2D42" stroke-width="0.671984" stroke-linejoin="round"/>
<rect x="229.731" y="41.9034" width="9.40777" height="9.40777" rx="0.671984" stroke="#2B2D42" stroke-width="0.671984"/>
<rect x="78.1186" y="14.336" width="7.39182" height="7.39182" rx="0.671984" stroke="#2B2D42" stroke-width="0.671984"/>
<rect x="126.336" y="150.103" width="7.39182" height="7.39182" rx="0.671984" stroke="#2B2D42" stroke-width="0.671984"/>
<rect x="245.336" y="120.103" width="5.32802" height="5.32802" rx="0.671984" stroke="#2B2D42" stroke-width="0.671984"/>
<line y1="-0.335992" x2="23.5194" y2="-0.335992" transform="matrix(-1 0 0 1 289.874 18.0244)" stroke="#2B2D42" stroke-width="0.671984" stroke-linejoin="round"/>
<line y1="-0.335992" x2="9.40777" y2="-0.335992" transform="matrix(-1 0 0 1 303.649 18.0244)" stroke="#2B2D42" stroke-width="0.671984" stroke-linejoin="round"/>
</svg>
